<svg width="31" height="31" viewBox="0 0 31 31" fill="none" xmlns="http://www.w3.org/2000/svg">
<g id="Social Icons" clip-path="url(#clip0_20_204)">
<path id="Vector" d="M28.7053 0H2.28867C1.02324 0 0 0.999024 0 2.23418V28.7598C0 29.9949 1.02324 31 2.28867 31H28.7053C29.9707 31 31 29.9949 31 28.7658V2.23418C31 0.999024 29.9707 0 28.7053 0ZM9.19707 26.4166H4.59551V11.6189H9.19707V26.4166ZM6.89629 9.60273C5.41895 9.60273 4.22617 8.40996 4.22617 6.93867C4.22617 5.46738 5.41895 4.27461 6.89629 4.27461C8.36758 4.27461 9.56035 5.46738 9.56035 6.93867C9.56035 8.40391 8.36758 9.60273 6.89629 9.60273ZM26.4166 26.4166H21.8211V19.2236C21.8211 17.5102 21.7908 15.3002 19.4295 15.3002C17.0379 15.3002 16.6746 17.1711 16.6746 19.1025V26.4166H12.0852V11.6189H16.493V13.6412H16.5535C17.165 12.4787 18.6666 11.2496 20.9008 11.2496C25.5568 11.2496 26.4166 14.3133 26.4166 18.2973V26.4166Z" fill="white"/>
</g>
<defs>
<clipPath id="clip0_20_204">
<rect width="31" height="31" fill="white"/>
</clipPath>
</defs>
</svg>
