<svg width="59" height="59" viewBox="0 0 59 59" fill="none" xmlns="http://www.w3.org/2000/svg">
<g id="Social Icons" clip-path="url(#clip0_20_226)">
<path id="Vector" d="M29.5 0C13.2059 0 0 13.2059 0 29.5C0 42.0029 7.77832 52.6736 18.7486 56.9719C18.4951 54.6326 18.2531 51.0603 18.8523 48.5137C19.3939 46.209 22.3094 33.8559 22.3094 33.8559C22.3094 33.8559 21.4221 32.0928 21.4221 29.477C21.4221 25.3746 23.7959 22.3094 26.7574 22.3094C29.2695 22.3094 30.491 24.1992 30.491 26.4693C30.491 29.0045 28.8777 32.7842 28.048 36.2873C27.3566 39.2258 29.523 41.6227 32.4154 41.6227C37.6586 41.6227 41.6918 36.0914 41.6918 28.1172C41.6918 21.0533 36.6215 16.1098 29.3732 16.1098C20.9842 16.1098 16.0521 22.4016 16.0521 28.9123C16.0521 31.4475 17.0316 34.167 18.2531 35.642C18.4951 35.9301 18.5297 36.1951 18.4605 36.4832C18.2416 37.4166 17.7346 39.4217 17.6424 39.825C17.5156 40.3666 17.216 40.4818 16.6514 40.2168C12.9639 38.4998 10.6592 33.1184 10.6592 28.7855C10.6592 19.4746 17.4234 10.9357 30.1453 10.9357C40.3781 10.9357 48.3293 18.2301 48.3293 27.9789C48.3293 38.1426 41.9223 46.3242 33.0262 46.3242C30.0416 46.3242 27.2299 44.7686 26.2619 42.9363C26.2619 42.9363 24.7869 48.5713 24.4297 49.9541C23.7613 52.5123 21.9637 55.7273 20.7652 57.6863C23.5309 58.5391 26.4578 59 29.5 59C45.7941 59 59 45.7941 59 29.5C59 13.2059 45.7941 0 29.5 0Z" fill="white"/>
</g>
<defs>
<clipPath id="clip0_20_226">
<rect width="59" height="59" fill="white"/>
</clipPath>
</defs>
</svg>
