<svg width="36" height="36" viewBox="0 0 36 36" fill="none" xmlns="http://www.w3.org/2000/svg">
<g id="Social Icons" clip-path="url(#clip0_20_202)">
<path id="Vector" d="M11.3252 32.6251C24.9068 32.6251 32.3374 21.3702 32.3374 11.6129C32.3374 11.2965 32.3304 10.9731 32.3163 10.6567C33.7618 9.61131 35.0092 8.3165 36 6.83307C34.6538 7.43202 33.2245 7.82319 31.7609 7.99323C33.3019 7.06948 34.4558 5.61833 35.0086 3.90877C33.5588 4.76796 31.9734 5.37404 30.3202 5.70104C29.2063 4.51746 27.7335 3.7338 26.1295 3.4712C24.5256 3.2086 22.8798 3.4817 21.4466 4.24827C20.0134 5.01484 18.8727 6.23218 18.2008 7.71209C17.5288 9.192 17.3631 10.852 17.7293 12.4356C14.7937 12.2883 11.9219 11.5257 9.29997 10.1973C6.67804 8.86886 4.36454 7.00428 2.50945 4.7244C1.5666 6.34999 1.27808 8.27359 1.70255 10.1043C2.12701 11.9349 3.23259 13.5353 4.79461 14.5801C3.62194 14.5429 2.47496 14.2271 1.44844 13.659V13.7504C1.44739 15.4563 2.03715 17.11 3.11746 18.4303C4.19778 19.7506 5.70199 20.656 7.37437 20.9926C6.28808 21.2898 5.14797 21.3331 4.04227 21.1192C4.51418 22.5863 5.43236 23.8695 6.66866 24.7896C7.90495 25.7098 9.39768 26.221 10.9385 26.252C8.32264 28.3068 5.09126 29.4213 1.76484 29.416C1.17493 29.4151 0.585599 29.379 0 29.3078C3.37928 31.4757 7.3103 32.6272 11.3252 32.6251Z" fill="white"/>
</g>
<defs>
<clipPath id="clip0_20_202">
<rect width="36" height="36" fill="white"/>
</clipPath>
</defs>
</svg>
